<svg width="14" height="14" fill="none" xmlns="http://www.w3.org/2000/svg"><g clip-path="url(#clip0)"><path d="M13.825 6.836a.668.668 0 00-.055-.955L7.513.406a.78.78 0 00-1.017.012L.218 6.173a.664.664 0 00-.03.954l.157.163c.261.272.683.305.942.073l.47-.42v6.15c0 .378.305.684.682.684h2.447a.683.683 0 00.683-.683V8.79h3.122v4.304c-.006.377.264.683.641.683h2.594a.683.683 0 00.683-.683V7.029l.29.254c.159.14.494.028.748-.251l.178-.196z"/></g><defs><clipPath id="clip0"><path fill="#fff" d="M0 0h14v14H0z"/></clipPath></defs></svg>