<svg width="14" height="14" fill="none" xmlns="http://www.w3.org/2000/svg"><g clip-path="url(#clip0)"><path d="M4.696 4.132l.018.02a3.641 3.641 0 014.51.01l.016-.018 2.398-2.398C8.991-.594 4.99-.582 2.346 1.782l2.35 2.35zm7.558-1.77L9.856 4.76l-.02.018a3.641 3.641 0 01-.011 4.484l.019.018 2.374 2.374c2.363-2.644 2.376-6.645.036-9.292zM4.08 9.28l.02-.018a3.641 3.641 0 010-4.497l-.02-.017L1.735 2.4c-2.312 2.64-2.312 6.595.001 9.225L4.081 9.28zm5.148.615l-.017-.019a3.641 3.641 0 01-4.497 0l-.018.02-2.347 2.347c2.63 2.335 6.602 2.342 9.25.023l-2.37-2.37z"/></g><defs><clipPath id="clip0"><path fill="#fff" d="M0 0h14v14H0z"/></clipPath></defs></svg>