<svg width="14" height="14" fill="none" xmlns="http://www.w3.org/2000/svg"><g clip-path="url(#clip0)"><path d="M13.937 5.321a1.212 1.212 0 00-1.17-.848H9.27L8.169 1.128A1.212 1.212 0 006.995.283c-.543.002-1 .337-1.167.854L4.76 4.473H1.233a1.21 1.21 0 00-1.17.851A1.209 1.209 0 00.513 6.7l2.852 2.062-1.098 3.336c-.17.516.004 1.057.442 1.378.22.16.474.241.727.241.25 0 .501-.079.72-.237l2.859-2.066 2.824 2.062a1.21 1.21 0 001.445.004c.44-.317.618-.856.452-1.373l-1.072-3.345 2.829-2.065c.438-.32.612-.86.444-1.376z"/></g><defs><clipPath id="clip0"><path fill="#fff" d="M0 0h14v14H0z"/></clipPath></defs></svg>