<svg width="16" height="16" fill="none" xmlns="http://www.w3.org/2000/svg"><path d="M15.396.604c-.978-.978-2.617-.697-3.645.331-.518.518-.843 1.171-.918 1.84-.029.26-.018.513.029.75a1.398 1.398 0 00-1.177 1.31 1.4 1.4 0 00-1.269 1 5.493 5.493 0 00-6.803.776 5.493 5.493 0 000 7.776 5.493 5.493 0 007.776 0 5.494 5.494 0 00.777-6.803 1.4 1.4 0 001-1.27 1.4 1.4 0 001.309-1.176c.249.05.499.057.75.029.669-.075 1.322-.4 1.84-.918 1.034-1.034 1.304-2.672.331-3.645zM8.483 12.156L7.158 13.48a.467.467 0 01-.663 0l-.67-.67a2.337 2.337 0 01-1.981-.656 2.345 2.345 0 01-.656-1.98l-.67-.67a.468.468 0 010-.663l1.326-1.325a.468.468 0 01.663 0l.67.67a2.344 2.344 0 011.98.655c.52.518.759 1.257.657 1.981l.67.67a.47.47 0 010 .663zm1.611-5.587a.468.468 0 11-.663-.662.468.468 0 01.663.662zm1.326-1.326a.47.47 0 11-.663-.664.47.47 0 01.663.664zm2.982-1.657c-.368.368-.822.598-1.28.65-.42.046-.788-.067-1.04-.318-.251-.252-.364-.62-.317-1.04.05-.458.281-.912.649-1.28.665-.666 1.726-.924 2.32-.331.547.548.399 1.588-.332 2.32z" fill="#2071C2"/><path d="M6.852 10.858a1.39 1.39 0 00-1.71-1.71.469.469 0 01-.452-.122l-.515-.515-.662.662.515.516a.47.47 0 01.122.45 1.39 1.39 0 001.71 1.711.473.473 0 01.45.122l.516.515.663-.662-.515-.516a.469.469 0 01-.122-.45z" fill="#2071C2"/></svg>