<svg width="16" height="16" fill="none" xmlns="http://www.w3.org/2000/svg"><path d="M14.682 6.755c-.476.864-1.372 1.458-2.426 1.458h-.392v1.595c0 .303-.269.549-.572.549-.303 0-.57-.246-.57-.549V8.213H5.278v1.595c0 .303-.269.549-.571.549-.303 0-.572-.246-.572-.549V8.213H3.78a2.794 2.794 0 01-2.444-1.458C.555 7.08 0 7.89 0 8.84v2.643c0 1.234.934 2.226 2.086 2.226h-.018v-1.088h11.864v1.088h.02c1.151 0 2.048-.992 2.048-2.226V8.84c0-.95-.536-1.76-1.318-2.085zM4.33 15.886h7.378c1.2 0 2.188-.98 2.24-2.177H2.089c.053 1.197 1.041 2.177 2.241 2.177z" fill="#2071C2"/><path d="M6.174 1.954H3.78c-.935 0-1.713.767-1.713 1.701v1.752A1.73 1.73 0 003.78 7.124h.355V5.001c0-.303.269-.548.572-.548.302 0 .57.245.57.548v2.123h5.443V5.001c0-.303.268-.548.571-.548.303 0 .572.245.572.548v2.123h.392c.935 0 1.676-.783 1.676-1.717V3.655c0-.934-.74-1.701-1.676-1.701H9.863c0-.38-.135-.787-.362-1.094A1.842 1.842 0 008.019.114a1.841 1.841 0 00-1.845 1.84zm2.593 0H7.27a.77.77 0 01.748-.748.77.77 0 01.748.748z" fill="#2071C2"/></svg>