<svg width="16" height="14" fill="none" xmlns="http://www.w3.org/2000/svg"><path d="M15.028.773H.972A.972.972 0 000 1.745v10.51c0 .536.436.972.972.972h14.056a.972.972 0 00.972-.972V1.745a.972.972 0 00-.972-.972zM7.62 9.878c0 .395-1.389.716-3.117.724-1.728-.008-3.117-.33-3.117-.724v-1.51c0-.526.426-.952.952-.952h1.009c.226 0 .306-.193.262-.39-.052-.233-.264-.376-.414-.544-.365-.41-.643-.896-.643-1.458a1.95 1.95 0 011.95-1.95h.006a1.95 1.95 0 011.95 1.95c0 .562-.279 1.048-.643 1.458-.15.168-.365.312-.415.544-.044.2.034.39.263.39H6.67c.527 0 .953.426.953.952v1.51h-.004zm6.298-.473H9.642a.648.648 0 110-1.296h4.275a.648.648 0 110 1.296zm0-3.838H9.642a.648.648 0 110-1.296h4.275a.648.648 0 110 1.296z" fill="#2071C2"/></svg>