<svg width="16" height="16" fill="none" xmlns="http://www.w3.org/2000/svg"><g clip-path="url(#clip0)"><path d="M11.468 8.164L7.532 6.65A1.998 1.998 0 016.25 4.758c.013-.966.795-1.754 1.743-1.757A1.75 1.75 0 019.75 4.75a1.5 1.5 0 001.513 1.5 1.516 1.516 0 001.487-1.536 4.721 4.721 0 00-1.391-3.323 4.747 4.747 0 00-6.717 0 4.718 4.718 0 00-1.392 3.36v9.75c0 .826.673 1.499 1.5 1.499h6.5c.827 0 1.5-.673 1.5-1.5v-4.47c0-.82-.515-1.571-1.282-1.866zM10.218 14H5.75a.5.5 0 110-1h4.469a.5.5 0 110 1zm0-2H5.75a.5.5 0 110-1h4.469a.5.5 0 110 1z" fill="#2071C2"/></g><defs><clipPath id="clip0"><path fill="#fff" d="M0 0h16v16H0z"/></clipPath></defs></svg>