<svg width="16" height="16" fill="none" xmlns="http://www.w3.org/2000/svg"><g clip-path="url(#clip0)" fill="#2071C2"><path d="M15.94 15.26l-3.5-6.333c-.093-.167-.24-.247-.447-.26a.497.497 0 00-.44.273l-.566 1.107 2.653 4.72c.213.373.247.826.1 1.233h1.76c.18 0 .34-.093.433-.247a.518.518 0 00.007-.493zm-3.173-.007L9.573 9.567 8.3 10.647a1.5 1.5 0 01-1.967-.027 1.502 1.502 0 01-1.973.02L3.147 9.613.06 15.26a.5.5 0 00.007.493A.51.51 0 00.5 16h11.833c.18 0 .34-.093.434-.247a.513.513 0 000-.5zm-2.6-11.92H6.333a.5.5 0 01-.5-.5V.5a.5.5 0 01.5-.5h3.834a.499.499 0 01.379.826l-.72.84.72.842a.5.5 0 01-.38.825z"/><path d="M6.333 5.333a.5.5 0 01-.5-.5V.5a.5.5 0 011 0v4.333a.5.5 0 01-.5.5z"/><path d="M9.073 8.68l-1.42 1.2a.49.49 0 01-.673-.027l-.647-.646-.646.646a.495.495 0 01-.674.027l-1.38-1.16.494-.893 1.766-3.234a.497.497 0 01.44-.26c.167-.02.347.094.434.254l1.806 3.206.5.887z"/></g><defs><clipPath id="clip0"><path fill="#fff" d="M0 0h16v16H0z"/></clipPath></defs></svg>