<svg width="16" height="16" fill="none" xmlns="http://www.w3.org/2000/svg"><g clip-path="url(#clip0)" fill="#2071C2"><path d="M8.083 4.317L7.478.284A.332.332 0 007.148 0h-.01a.332.332 0 00-.321.305l-.292 3.502c-.018.216-.402.216-.42 0L5.815.305a.333.333 0 00-.665 0l-.292 3.502c-.018.216-.401.216-.42 0L4.149.305A.334.334 0 003.825 0h-.01a.332.332 0 00-.33.284L2.88 4.317a2.608 2.608 0 001.545 2.784l-.515 7.214A1.576 1.576 0 005.481 16h.002a1.58 1.58 0 001.152-.501 1.58 1.58 0 00.418-1.184L6.54 7.1a2.608 2.608 0 001.544-2.784zM13.007.061a.334.334 0 00-.303-.042c-.029.01-2.889 1.061-2.889 4.314 0 2.342.762 3.525 1.191 4.005l-.427.427a.33.33 0 00-.096.202l-.527 5.274A1.6 1.6 0 0011.548 16c.882 0 1.6-.718 1.6-1.6V.333a.33.33 0 00-.14-.272z"/></g><defs><clipPath id="clip0"><path fill="#fff" d="M0 0h16v16H0z"/></clipPath></defs></svg>