<svg width="16" height="16" fill="none" xmlns="http://www.w3.org/2000/svg"><g clip-path="url(#clip0)" fill="#fff"><path d="M4.732 4.04a.501.501 0 01-.501-.5V.5a.501.501 0 111.002 0v3.04a.501.501 0 01-.501.5zm6.536 0a.5.5 0 01-.5-.5V.5a.5.5 0 111.001 0v3.04a.5.5 0 01-.5.5zM.76 6.95v6.913A2.14 2.14 0 002.897 16h10.206a2.14 2.14 0 002.137-2.137V6.95H.76z"/><path d="M15.24 5.949V3.657a2.14 2.14 0 00-2.137-2.137h-.332v2.02c0 .829-.674 1.503-1.503 1.503A1.505 1.505 0 019.765 3.54V1.52h-3.53v2.02c0 .829-.674 1.503-1.503 1.503A1.505 1.505 0 013.229 3.54V1.52h-.332A2.14 2.14 0 00.76 3.657v2.292h14.48z"/></g><defs><clipPath id="clip0"><path fill="#fff" d="M0 0h16v16H0z"/></clipPath></defs></svg>