<svg width="16" height="16" fill="none" xmlns="http://www.w3.org/2000/svg"><g clip-path="url(#clip0)"><path d="M8 .4C3.589.4 0 3.63 0 7.6a6.65 6.65 0 001.272 3.894c-.158 1.744-.58 3.038-1.194 3.65a.267.267 0 00.226.453c.108-.015 2.617-.376 4.431-1.423A8.679 8.679 0 008 14.8c4.411 0 8-3.23 8-7.2S12.411.4 8 .4zM4.267 8.667a1.068 1.068 0 010-2.134 1.068 1.068 0 010 2.134zm3.733 0a1.068 1.068 0 010-2.134 1.068 1.068 0 010 2.134zm3.733 0a1.068 1.068 0 010-2.134 1.068 1.068 0 010 2.134z" fill="#2071C2"/></g><defs><clipPath id="clip0"><path fill="#fff" d="M0 0h16v16H0z"/></clipPath></defs></svg>