<svg width="16" height="16" fill="none" xmlns="http://www.w3.org/2000/svg"><path d="M8.667 9.333H6a.667.667 0 100 1.334h2.667a.667.667 0 000-1.334zm2.666-6.666h-.786a2 2 0 00-1.88-1.334H7.333a2 2 0 00-1.88 1.334h-.786a2 2 0 00-2 2v8a2 2 0 002 2h6.666a2 2 0 002-2v-8a2 2 0 00-2-2zm-4.666.666a.667.667 0 01.666-.666h1.334a.667.667 0 01.666.666V4H6.667v-.667zM12 12.667a.666.666 0 01-.667.666H4.667A.667.667 0 014 12.667v-8A.667.667 0 014.667 4h.666v.667A.667.667 0 006 5.333h4a.667.667 0 00.667-.666V4h.666a.667.667 0 01.667.667v8zm-2-6H6A.667.667 0 106 8h4a.667.667 0 100-1.333z" fill="#fff"/></svg>