<svg width="14" height="14" fill="none" xmlns="http://www.w3.org/2000/svg"><g clip-path="url(#clip0)" fill="#fff"><path d="M10.938 0a3.066 3.066 0 00-3.063 3.063c0 1.571 2.457 4.354 2.737 4.667a.44.44 0 00.651 0C11.543 7.417 14 4.634 14 3.062A3.066 3.066 0 0010.937 0zm0 4.375a1.313 1.313 0 110-2.626 1.313 1.313 0 010 2.626zM.275 5.14A.439.439 0 000 5.547v8.015a.438.438 0 00.6.407l3.775-1.51V3.5l-4.1 1.64z"/><path d="M11.914 8.314a1.316 1.316 0 01-1.953 0c-.09-.099-.204-.229-.336-.384V14l4.1-1.64a.436.436 0 00.275-.406V5.522c-.717 1.214-1.675 2.334-2.086 2.792zM7.276 4.31L5.25 3.5v8.958l3.5 1.4V6.832c-.56-.753-1.143-1.66-1.474-2.522z"/></g><defs><clipPath id="clip0"><path fill="#fff" d="M0 0h14v14H0z"/></clipPath></defs></svg>