<svg width="16" height="16" fill="none" xmlns="http://www.w3.org/2000/svg"><g clip-path="url(#clip0)" fill="#fff"><path d="M9.83 2.845a3.78 3.78 0 011.515-.321c.302 0 .59.036.862.105a.16.16 0 00.197-.177l-.04-.315c-.032-.524-.632-.947-1.35-.947-.737 0-1.442.442-1.442.99l.033.524c.01.115.124.187.226.141zm6.144 9.018l-.017-.095c0-.007-.003-.013-.003-.02l-.606-3.081c-.079-.711-.597-1.331-1.35-1.715l-.29-2.238c0-.951-1.075-1.728-2.363-1.728s-2.514.77-2.514 1.724c0 .046.003.095.01.141l.016.243a2.545 2.545 0 00-.855-.144c-.312 0-.604.052-.862.147l.016-.246a.984.984 0 00.01-.14c0-.951-1.23-1.725-2.514-1.725-1.289 0-2.364.777-2.364 1.728L2 6.952C1.246 7.332.728 7.956.649 8.667l-.606 3.081c0 .007-.004.013-.004.02l-.016.095a2.24 2.24 0 00-.023.298c0 1.462 1.53 2.649 3.416 2.649 1.885 0 3.415-1.187 3.415-2.649v-1.213c.338.158.741.246 1.17.246.43 0 .83-.088 1.168-.242v1.21c0 1.461 1.53 2.648 3.415 2.648 1.882 0 3.416-1.187 3.416-2.649a2.973 2.973 0 00-.026-.298zM3.416 13.856c-1.334 0-2.462-.777-2.462-1.695 0-.92 1.128-1.694 2.462-1.694 1.334 0 2.461.776 2.461 1.694 0 .918-1.127 1.695-2.461 1.695zm4.586-3.5c-.56 0-1.017-.319-1.017-.709 0-.39.456-.708 1.017-.708.56 0 1.016.318 1.016.708 0 .39-.456.708-1.016.708zm4.579 3.5c-1.334 0-2.462-.777-2.462-1.695 0-.92 1.128-1.694 2.462-1.694 1.334 0 2.462.776 2.462 1.694 0 .918-1.128 1.695-2.462 1.695zM3.786 2.629a3.53 3.53 0 01.862-.105c.521 0 1.052.115 1.515.321a.159.159 0 00.222-.138l.033-.524c0-.547-.705-.99-1.442-.99-.718 0-1.315.423-1.35.947l-.04.315a.16.16 0 00.2.174z"/></g><defs><clipPath id="clip0"><path fill="#fff" d="M0 0h16v16H0z"/></clipPath></defs></svg>