<svg width="18" height="14" fill="none" xmlns="http://www.w3.org/2000/svg"><path d="M9 2.76a.851.851 0 01-.861-.84c0-.465.385-.841.861-.841s.862.376.862.84c0 .464-.386.84-.862.84zM9.002 0c-.965 0-1.816.871-1.747 1.94.053.843 1.182 2.977 1.597 3.734.033.06.094.09.155.09.06 0 .119-.028.153-.086.43-.743 1.59-2.831 1.59-3.738C10.75.87 9.966 0 9.002 0zM5.075 3.685c-1.925 0-6.754.51-4.478 5.872.18.425.546 1.26.911 2.09h4.719v1.216H2.045l.493 1.114L7.444 14V6.848L5.821 3.713s-.292-.028-.746-.028zm0 1.157h.001l1.182 2.282v3.365H2.29a141.79 141.79 0 01-.597-1.374c-.41-.964-.78-2.285-.221-3.1.503-.735 1.85-1.173 3.602-1.173zm7.85-1.157c-.454 0-.746.028-.746.028l-1.623 3.135V14l4.906-.023.493-1.114H11.83v-1.216h4.662c.365-.83.731-1.665.91-2.09 2.277-5.361-2.551-5.872-4.477-5.872zm0 1.157c1.752 0 3.099.439 3.602 1.173.559.815.189 2.136-.22 3.1-.115.269-.315.73-.598 1.374h-3.966V7.124l1.181-2.282h.001zM8.671 8.043h.625v-.914H8.67v.914zm0 3.362h.625V9.724H8.67v1.681zm0 2.595h.625v-.914H8.67V14z" fill="#fff"/></svg>