<svg width="26" height="26" fill="none" xmlns="http://www.w3.org/2000/svg"><circle cx="13" cy="13" r="13" fill="#2071C2"/><g clip-path="url(#clip0)" fill="#fff"><path d="M16.938 6a3.066 3.066 0 00-3.063 3.063c0 1.571 2.457 4.354 2.737 4.667a.44.44 0 00.651 0c.28-.313 2.737-3.096 2.737-4.668A3.066 3.066 0 0016.937 6zm0 4.375a1.313 1.313 0 110-2.626 1.313 1.313 0 010 2.626zm-10.663.765a.439.439 0 00-.275.407v8.015a.438.438 0 00.6.406l3.775-1.51V9.5l-4.1 1.64z"/><path d="M17.914 14.314a1.316 1.316 0 01-1.953 0c-.09-.099-.204-.229-.336-.384V20l4.1-1.64a.436.436 0 00.275-.406v-6.432c-.717 1.214-1.675 2.334-2.086 2.792zm-4.638-4.004L11.25 9.5v8.958l3.5 1.4v-7.026c-.56-.753-1.143-1.66-1.474-2.522z"/></g><defs><clipPath id="clip0"><path fill="#fff" transform="translate(6 6)" d="M0 0h14v14H0z"/></clipPath></defs></svg>