<svg width="26" height="26" fill="none" xmlns="http://www.w3.org/2000/svg"><circle cx="13" cy="13" r="13" fill="#2071C2"/><path d="M13 7.76a.851.851 0 01-.861-.84c0-.465.385-.841.861-.841s.862.376.862.84c0 .464-.386.84-.862.84zM13.002 5c-.965 0-1.816.871-1.747 1.94.053.843 1.182 2.977 1.596 3.734.034.06.095.09.156.09.06 0 .119-.028.153-.086.43-.743 1.59-2.831 1.59-3.738 0-1.071-.783-1.94-1.748-1.94zM9.075 8.685c-1.925 0-6.754.51-4.478 5.872.18.425.546 1.26.911 2.09h4.719v1.216H6.045l.493 1.114 4.906.023v-7.152L9.821 8.713s-.292-.028-.746-.028zm0 1.157h.001l1.182 2.282v3.365H6.29a131.73 131.73 0 01-.597-1.374c-.41-.964-.78-2.284-.221-3.1.503-.735 1.85-1.173 3.602-1.173zm7.85-1.157c-.454 0-.746.028-.746.028l-1.623 3.135V19l4.906-.023.493-1.114H15.83v-1.216h4.662c.365-.83.731-1.665.91-2.09 2.277-5.361-2.551-5.872-4.477-5.872zm0 1.157c1.752 0 3.099.439 3.602 1.173.559.816.189 2.136-.22 3.1-.115.269-.315.73-.598 1.374h-3.966v-3.365l1.181-2.282h.001zm-4.254 3.201h.625v-.914h-.625v.914zm0 3.362h.625v-1.681h-.625v1.681zm0 2.595h.625v-.914h-.625V19z" fill="#fff"/></svg>