<svg width="30" height="30" fill="none" xmlns="http://www.w3.org/2000/svg"><circle cx="15" cy="15" r="15" fill="#2071C2"/><path d="M21.215 11c.463 0 .56.219.463.517-.183.772-1.85 2.959-2.042 3.21l-.018.024c-.162.24-.227.357 0 .626.08.1.247.25.439.424.202.182.433.388.616.588.658.68 1.154 1.253 1.292 1.648.126.396-.093.597-.53.597h-1.532c-.41 0-.617-.21-1.064-.667-.189-.193-.421-.43-.73-.714-.909-.805-1.298-.91-1.526-.91-.307 0-.4.08-.4.482v1.264c0 .347-.12.547-1.094.547-1.622 0-3.406-.904-4.671-2.574C8.519 13.618 8 11.77 8 11.397c0-.208.087-.397.525-.397h1.531c.392 0 .539.157.686.547.748 2.004 2.012 3.755 2.531 3.755.195 0 .284-.082.284-.536v-2.072c-.035-.59-.26-.846-.426-1.035-.102-.116-.183-.207-.183-.336 0-.157.147-.323.39-.323h2.407c.324 0 .438.159.438.517v2.788c0 .298.14.403.238.403.195 0 .357-.106.714-.434 1.103-1.133 1.882-2.876 1.882-2.876.097-.21.277-.398.666-.398h1.532z" fill="#fff"/></svg>