<svg width="30" height="30" fill="none" xmlns="http://www.w3.org/2000/svg"><circle cx="15" cy="15" r="15" fill="#2071C2"/><path d="M15 12.667a2.334 2.334 0 110 4.668 2.334 2.334 0 010-4.668z" fill="#fff"/><path fill-rule="evenodd" clip-rule="evenodd" d="M15 8c-1.901 0-2.14.008-2.885.042-.745.034-1.256.153-1.703.326a3.578 3.578 0 00-2.048 2.047c-.173.445-.292.954-.325 1.699-.034.744-.039.985-.039 2.885s.009 2.14.042 2.885c.034.746.152 1.254.326 1.7a3.584 3.584 0 002.044 2.049c.445.173.954.29 1.7.324.745.034.985.043 2.885.043s2.14-.009 2.886-.043c.745-.034 1.254-.151 1.7-.325a3.592 3.592 0 002.05-2.045c.171-.445.29-.954.324-1.699.035-.745.043-.984.043-2.885 0-1.9-.009-2.14-.043-2.885-.033-.745-.153-1.253-.325-1.698a3.44 3.44 0 00-.808-1.24 3.414 3.414 0 00-1.24-.807c-.446-.173-.955-.292-1.703-.326-.747-.034-.984-.042-2.885-.042L15.001 8zm3.737 2.424a.84.84 0 100 1.68.84.84 0 000-1.68zm-3.736.981a3.595 3.595 0 100 7.191 3.595 3.595 0 000-7.19z" fill="#fff"/></svg>