<svg width="30" height="30" fill="none" xmlns="http://www.w3.org/2000/svg"><circle cx="15" cy="15" r="15" fill="#2071C2"/><path fill-rule="evenodd" clip-rule="evenodd" d="M10.275 8.338c1.515-.396 3.088-.303 4.639-.338-.094 1.458 0 2.975-.49 4.375-.373 1.073-1.305 1.902-2.413 2.17-1.305.315-2.669.338-4.01.35.047-1.633-.07-3.325.444-4.9.256-.852.99-1.458 1.83-1.657zM15.1 8c1.608.023 3.275-.082 4.837.397a2.484 2.484 0 011.667 1.68c.466 1.563.373 3.208.396 4.818-1.34-.012-2.704-.035-4.01-.35-1.13-.268-2.086-1.143-2.435-2.252-.443-1.388-.373-2.858-.455-4.293zm-7.098 7.105c1.189.012 2.39.058 3.566.257 1.166.175 2.296.898 2.751 2.006.618 1.459.455 3.08.583 4.632-1.399-.012-2.81.035-4.184-.222-.781-.151-1.62-.49-2.028-1.225-.537-.945-.595-2.053-.653-3.115 0-.781-.047-1.551-.035-2.333zm10.175.303c1.247-.256 2.54-.291 3.811-.303-.023 1.61.082 3.255-.396 4.818a2.474 2.474 0 01-1.655 1.669c-1.562.478-3.229.373-4.837.396.07-1.458 0-2.975.478-4.375.385-1.143 1.434-1.971 2.599-2.205z" fill="#fff"/></svg>