<svg width="38" height="43" fill="none" xmlns="http://www.w3.org/2000/svg"><g clip-path="url(#clip0)" fill="#fff"><path d="M30.473 12.533c.75 0 1.359-.597 1.359-1.333s-.608-1.332-1.359-1.332c-.75 0-1.358.596-1.358 1.332 0 .736.608 1.333 1.358 1.333zm3.709 4.825c.871 0 1.578-.693 1.578-1.548 0-.855-.706-1.549-1.578-1.549-.872 0-1.58.694-1.58 1.549s.708 1.548 1.58 1.548zm2.019 7.239c1.014 0 1.836-.806 1.836-1.8 0-.995-.822-1.801-1.836-1.801-1.014 0-1.836.806-1.836 1.8 0 .995.822 1.801 1.836 1.801zm-1.689 8.643c1.156 0 2.093-.919 2.093-2.052 0-1.134-.937-2.053-2.093-2.053s-2.093.919-2.093 2.053c0 1.133.937 2.052 2.093 2.052zM18.688 43c1.318 0 2.386-1.048 2.386-2.34 0-1.294-1.068-2.342-2.386-2.342S16.3 39.366 16.3 40.66c0 1.293 1.069 2.341 2.387 2.341zm9.729-2.809c1.278 0 2.313-1.016 2.313-2.269 0-1.253-1.035-2.269-2.313-2.269-1.277 0-2.313 1.016-2.313 2.27 0 1.252 1.036 2.268 2.313 2.268zM7.71 12.317c.75 0 1.359-.597 1.359-1.333S8.46 9.652 7.71 9.652s-1.358.596-1.358 1.332c0 .736.608 1.333 1.358 1.333zm-3.965 5.149c.872 0 1.579-.693 1.579-1.548 0-.855-.707-1.549-1.58-1.549-.871 0-1.578.694-1.578 1.549s.707 1.549 1.579 1.549zm-1.909 7.131c1.014 0 1.835-.806 1.835-1.8 0-.995-.821-1.801-1.835-1.801S0 21.802 0 22.796c0 .995.822 1.801 1.836 1.801zm1.652 8.571c1.156 0 2.093-.919 2.093-2.052 0-1.134-.937-2.053-2.093-2.053s-2.093.919-2.093 2.053c0 1.133.937 2.052 2.093 2.052zm5.727 6.807c1.278 0 2.313-1.016 2.313-2.269 0-1.253-1.035-2.269-2.313-2.269-1.277 0-2.313 1.016-2.313 2.269 0 1.253 1.036 2.269 2.313 2.269zM26.949 16.17c-.735-.9-4.7-1.405-8.078-1.405h-.367c-3.194.037-8.114 1.189-8.114 1.91 0 .611.147 1.296.918 1.296.11 0 .257 0 .367-.036 0 0 .771-.18 2.093-.396.147.035.294.144.257.396-.073 3.06-1.762 13.037-2.24 14.297-.11.288.074.324.258.36.514.108.77.144 1.027-.504 2.203-5.114 3.048-12.46 3.232-14.766.183-.18.403-.108.403-.108h-.036c.33-.036.66-.036.99-.072.184.036.442.18.478.433 0 .18 0 .396-.037.648-.183 1.656-.257 12.965-.22 13.901.037.612.845.72 1.616.612.734-.072.697-1.584.697-2.16-.257-4.754-.037-11.705.037-13.29a.535.535 0 01.33-.216c.33 0 .625.036.918.036a.49.49 0 01.294.252c.147.36.294.937.367 1.73.257 2.376.881 9.65 1.689 12.64.073.288.294.756 1.028.576.698-.144.881-.36.808-.792-.074-.396-1.542-8.715-1.469-13.65 0-.323.184-.395.367-.431.624.107 1.065.216 1.359.324.22.072.367.108.514.108.22 0 .294-.18.514-1.189l.036-.18c.074-.108.074-.216-.036-.324zM19.826 2.593c.73 0 1.322-.58 1.322-1.297A1.31 1.31 0 0019.826 0c-.73 0-1.322.58-1.322 1.296a1.31 1.31 0 001.322 1.297zm6.976 4.466c-1.101-1.693-2.974-1.837-3.892-1.153-1.175.9-2.166 4.682-2.533 6.303-.11.468 0 .576.33.396.257-.144.551-.288.955-.36 1.101-.216 1.946-.072 3.304-.469 1.322-.36 3.194-2.557 1.836-4.717zm-3.231 3.42c-.367.073-.771.253-1.028.361-.147.072-.22-.036-.147-.252.184-1.08.881-4.07 2.423-3.673 1.028.252 1.322 3.097-1.248 3.565zm-4.736 1.838c-.367-2.341-.955-7.96.624-7.96.881 0 1.175.865.698 2.45-.698 2.304-.588 4.681-.698 5.365-.11.72-.514.865-.624.145zm-2.019-5.042c-.22-1.405-.955-2.197-2.717-1.225-1.763.973-2.46 2.161-2.277 3.602.184 1.44 2.497 1.98 3.488 2.124.698.108 1.652.289 2.24.577.257.108.33-.108.147-.613-.294-.9-.661-2.304-.881-4.465zm-.992 3.601c-1.395-.36-2.203-1.044-2.423-1.549-.367-.864.698-1.908 1.138-1.98 1.395-.324 1.469 2.34 1.469 3.277-.037.144-.147.252-.184.252z"/></g><defs><clipPath id="clip0"><path fill="#fff" d="M0 0h38v43H0z"/></clipPath></defs></svg>